<?xml version="1.0" encoding="utf-8"?>
<!-- Generator: Adobe Illustrator 16.0.0, SVG Export Plug-In . SVG Version: 6.00 Build 0)  -->
<!DOCTYPE svg PUBLIC "-//W3C//DTD SVG 1.1//EN" "http://www.w3.org/Graphics/SVG/1.1/DTD/svg11.dtd">
<svg version="1.1" xmlns="http://www.w3.org/2000/svg" xmlns:xlink="http://www.w3.org/1999/xlink" x="0px" y="0px" width="792px"
	 height="792px" viewBox="0 0 792 792" enable-background="new 0 0 792 792" xml:space="preserve">
<g id="Layer_3" display="none">
	<g display="inline">
		<path fill="#231F20" d="M671.588,120.407H120.402c-37.873,0-68.554,31.021-68.554,68.906l-0.347,413.379
			c0,37.892,31.027,68.898,68.9,68.898h551.186c37.879,0,68.912-31.01,68.912-68.898V189.314
			C740.5,151.43,709.467,120.407,671.588,120.407z M671.588,602.692H120.402V258.209l275.596,172.245l275.59-172.245V602.692z
			 M395.998,361.554l-275.596-172.24h551.186L395.998,361.554z"/>
	</g>
</g>
<g id="Layer_2">
	<path fill="#231F20" d="M288.654,425.612h-56.498c-9.322,0-16.949-7.627-16.949-16.949v-56.498c0-9.322,7.627-16.949,16.949-16.949
		h56.498c9.322,0,16.949,7.627,16.949,16.949v56.498C305.604,417.985,297.977,425.612,288.654,425.612z M441.198,408.663v-56.498
		c0-9.322-7.628-16.949-16.949-16.949h-56.498c-9.322,0-16.949,7.627-16.949,16.949v56.498c0,9.322,7.627,16.949,16.949,16.949
		h56.498C433.57,425.612,441.198,417.985,441.198,408.663z M576.793,408.663v-56.498c0-9.322-7.628-16.949-16.949-16.949h-56.498
		c-9.322,0-16.949,7.627-16.949,16.949v56.498c0,9.322,7.627,16.949,16.949,16.949h56.498
		C569.165,425.612,576.793,417.985,576.793,408.663z M441.198,544.258V487.76c0-9.321-7.628-16.949-16.949-16.949h-56.498
		c-9.322,0-16.949,7.628-16.949,16.949v56.498c0,9.322,7.627,16.949,16.949,16.949h56.498
		C433.57,561.207,441.198,553.58,441.198,544.258z M305.604,544.258V487.76c0-9.321-7.627-16.949-16.949-16.949h-56.498
		c-9.322,0-16.949,7.628-16.949,16.949v56.498c0,9.322,7.627,16.949,16.949,16.949h56.498
		C297.977,561.207,305.604,553.58,305.604,544.258z M576.793,544.258V487.76c0-9.321-7.628-16.949-16.949-16.949h-56.498
		c-9.322,0-16.949,7.628-16.949,16.949v56.498c0,9.322,7.627,16.949,16.949,16.949h56.498
		C569.165,561.207,576.793,553.58,576.793,544.258z M712.388,177.022v497.181c0,37.43-30.368,67.797-67.798,67.797H147.41
		c-37.431,0-67.798-30.367-67.798-67.797V177.022c0-37.43,30.367-67.797,67.798-67.797h67.797V66.949
		c0-9.322,7.627-16.949,16.949-16.949h56.498c9.322,0,16.949,7.627,16.949,16.949v42.276h180.793V66.949
		c0-9.322,7.627-16.949,16.949-16.949h56.498c9.321,0,16.949,7.627,16.949,16.949v42.276h67.797
		C682.02,109.225,712.388,139.593,712.388,177.022z M644.59,665.729V244.82H147.41v420.909c0,4.66,3.813,8.475,8.475,8.475h480.23
		C640.775,674.203,644.59,670.389,644.59,665.729z"/>
</g>
</svg>
