<?xml version="1.0" encoding="utf-8"?>
<!-- Generator: Adobe Illustrator 16.0.0, SVG Export Plug-In . SVG Version: 6.00 Build 0)  -->
<!DOCTYPE svg PUBLIC "-//W3C//DTD SVG 1.1//EN" "http://www.w3.org/Graphics/SVG/1.1/DTD/svg11.dtd">
<svg version="1.1" id="Layer_4" xmlns="http://www.w3.org/2000/svg" xmlns:xlink="http://www.w3.org/1999/xlink" x="0px" y="0px"
	 width="792px" height="792px" viewBox="0 0 792 792" enable-background="new 0 0 792 792" xml:space="preserve">
<g>
	<path d="M396.402,755.752c-48.594,0-95.747-9.522-140.148-28.301c-42.874-18.134-81.371-44.086-114.421-77.139
		c-33.05-33.053-59.001-71.55-77.132-114.425c-18.777-44.402-28.298-91.553-28.298-140.145c0-48.586,9.521-95.733,28.298-140.134
		c18.132-42.873,44.083-81.37,77.132-114.422c33.051-33.054,71.548-59.007,114.42-77.141
		c44.403-18.781,91.556-28.303,140.149-28.303c48.589,0,95.74,9.523,140.142,28.303c42.873,18.134,81.369,44.087,114.421,77.141
		c33.052,33.053,59.004,71.55,77.137,114.422c18.778,44.401,28.301,91.548,28.301,140.134c0,48.591-9.522,95.743-28.301,140.146
		c-18.133,42.874-44.085,81.371-77.137,114.424c-33.052,33.052-71.548,59.005-114.421,77.139
		C492.143,746.229,444.992,755.752,396.402,755.752z M396.402,94.187c-166.279,0-301.556,135.277-301.556,301.556
		c0,166.284,135.277,301.565,301.556,301.565c166.278,0,301.556-135.281,301.556-301.565
		C697.958,229.464,562.681,94.187,396.402,94.187z"/>
	<rect x="232.576" y="359.006" width="327.67" height="73.463"/>
</g>
</svg>
