<?xml version="1.0" encoding="utf-8"?>
<!-- Generator: Adobe Illustrator 16.0.0, SVG Export Plug-In . SVG Version: 6.00 Build 0)  -->
<!DOCTYPE svg PUBLIC "-//W3C//DTD SVG 1.1//EN" "http://www.w3.org/Graphics/SVG/1.1/DTD/svg11.dtd">
<svg version="1.1" id="Layer_4" xmlns="http://www.w3.org/2000/svg" xmlns:xlink="http://www.w3.org/1999/xlink" x="0px" y="0px"
	 width="792px" height="792px" viewBox="0 0 792 792" enable-background="new 0 0 792 792" xml:space="preserve">
<g>
	<path d="M437.354,227.857v131.058h122.461v73.497H437.354v131.714h-83.379V432.412H232.169v-73.497h121.805V227.857H437.354z"/>
	<path d="M395.992,755.995c-48.584,0-95.731-9.523-140.132-28.306c-42.871-18.134-81.366-44.089-114.419-77.143
		c-33.051-33.054-59.004-71.55-77.137-114.421C45.522,491.725,36,444.578,36,395.996c0-48.584,9.522-95.731,28.303-140.132
		c18.133-42.871,44.086-81.366,77.138-114.419c33.053-33.051,71.548-59.004,114.419-77.138c44.4-18.78,91.547-28.302,140.132-28.302
		c48.587,0,95.738,9.522,140.141,28.302c42.872,18.133,81.37,44.086,114.424,77.138c33.053,33.052,59.007,71.548,77.141,114.419
		c18.78,44.4,28.303,91.547,28.303,140.132c0,48.583-9.522,95.729-28.303,140.13c-18.134,42.871-44.088,81.368-77.141,114.421
		c-33.053,33.054-71.55,59.009-114.423,77.143C491.729,746.472,444.579,755.995,395.992,755.995z M395.992,94.447
		c-166.274,0-301.549,135.274-301.549,301.548c0,166.28,135.274,301.557,301.549,301.557c166.285,0,301.566-135.277,301.566-301.557
		C697.558,229.721,562.276,94.447,395.992,94.447z"/>
</g>
</svg>
