<?xml version="1.0" encoding="utf-8"?>
<!-- Generator: Adobe Illustrator 16.0.0, SVG Export Plug-In . SVG Version: 6.00 Build 0)  -->
<!DOCTYPE svg PUBLIC "-//W3C//DTD SVG 1.1//EN" "http://www.w3.org/Graphics/SVG/1.1/DTD/svg11.dtd">
<svg version="1.1" id="Layer_1" xmlns="http://www.w3.org/2000/svg" xmlns:xlink="http://www.w3.org/1999/xlink" x="0px" y="0px"
	 width="792px" height="792px" viewBox="0 0 792 792" enable-background="new 0 0 792 792" xml:space="preserve">
<g>
	<path fill="#231F20" d="M768.267,412.029L425.729,64.674c-5.859-5.866-13.971-9.217-22.266-9.217
		c-8.146,0-15.735,3.11-21.386,8.751L24.234,411.552c-9.129,8.601-12.001,22.021-7.259,34.141
		c4.573,11.695,15.793,19.26,28.581,19.26h56.498v240.481c0,17.162,13.958,31.109,31.121,31.109h179.6
		c17.151,0,31.104-13.947,31.104-31.109V530.65h99.864v174.78c0,17.164,13.945,31.109,31.106,31.109h170.846
		c17.149,0,31.106-13.945,31.106-31.109V464.95h69.652c12.385,0,23.862-7.713,28.546-19.189
		C779.696,434.318,776.993,420.769,768.267,412.029z M645.694,402.72c-17.163,0-31.12,13.959-31.12,31.121v240.475H505.971V499.543
		c0-17.151-13.957-31.109-31.12-31.109H312.773c-17.156,0-31.114,13.958-31.114,31.109v174.771H164.29V433.841
		c0-17.162-13.958-31.121-31.115-31.121h-10.859l280.622-272.216L671.793,402.72H645.694z"/>
</g>
</svg>
