<?xml version="1.0" encoding="utf-8"?>
<!-- Generator: Adobe Illustrator 16.0.0, SVG Export Plug-In . SVG Version: 6.00 Build 0)  -->
<!DOCTYPE svg PUBLIC "-//W3C//DTD SVG 1.1//EN" "http://www.w3.org/Graphics/SVG/1.1/DTD/svg11.dtd">
<svg version="1.1" id="Layer_2" xmlns="http://www.w3.org/2000/svg" xmlns:xlink="http://www.w3.org/1999/xlink" x="0px" y="0px"
	 width="792px" height="792px" viewBox="0 0 792 792" enable-background="new 0 0 792 792" xml:space="preserve">
<g>
	<path fill="#231F20" d="M638.769,119.115H536.22v-55.34c0-10.027-4.532-19.317-12.429-25.484
		c-7.744-6.026-18.154-8.251-27.727-5.878l-351.418,87.889l-6.816,2.75c-0.59,0.307-1.157,0.649-1.788,1.044l-1.146,0.738
		c-0.555,0.389-1.087,0.79-2.296,1.747c-0.667,0.549-1.315,1.15-2.178,1.977c-0.702,0.696-1.352,1.417-2.331,2.615
		c-0.531,0.654-1.039,1.328-2.042,2.827l-3.883,8.64c-0.171,0.602-0.331,1.222-0.391,1.517l-0.713,4.503l-0.137,579.555
		c0,17.813,14.501,32.307,32.324,32.307h485.518c17.813,0,32.306-14.494,32.306-32.307V151.433
		C671.073,133.615,656.58,119.115,638.769,119.115z M471.583,92.489v26.626H358.109L471.583,92.489z M606.438,695.884H185.563
		V183.755h420.876v512.129H606.438z"/>
	<path fill="#231F20" d="M314.256,540.894l67.297,33.641c4.479,2.229,9.478,3.422,14.453,3.422c4.986,0,9.992-1.191,14.46-3.422
		l67.292-33.641c25.85-12.926,47.555-32.755,62.771-57.376c15.202-24.6,23.229-52.88,23.229-81.799
		c0-55.151-44.877-100.029-100.047-100.029c-25.307,0-49.338,9.508-67.705,26.458c-18.371-16.949-42.409-26.458-67.723-26.458
		c-55.156,0-100.033,44.877-100.033,100.029c0,28.942,8.038,57.225,23.241,81.799C266.688,508.126,288.394,527.968,314.256,540.894z
		 M328.283,366.326c19.518,0,35.399,15.881,35.399,35.393c0,17.823,14.5,32.318,32.323,32.318c17.823,0,32.318-14.495,32.318-32.318
		c0-19.512,15.876-35.393,35.387-35.393c19.523,0,35.41,15.881,35.41,35.405c0.023,34.665-19.238,65.841-50.271,81.349
		l-52.845,26.428l-52.838-26.428c-31.013-15.497-50.282-46.684-50.282-81.36C292.886,382.207,308.767,366.326,328.283,366.326z"/>
</g>
</svg>
