<?xml version="1.0" encoding="utf-8"?>
<!-- Generator: Adobe Illustrator 16.0.0, SVG Export Plug-In . SVG Version: 6.00 Build 0)  -->
<!DOCTYPE svg PUBLIC "-//W3C//DTD SVG 1.1//EN" "http://www.w3.org/Graphics/SVG/1.1/DTD/svg11.dtd">
<svg version="1.1" id="Layer_4" xmlns="http://www.w3.org/2000/svg" xmlns:xlink="http://www.w3.org/1999/xlink" x="0px" y="0px"
	 width="792px" height="792px" viewBox="0 0 792 792" enable-background="new 0 0 792 792" xml:space="preserve">
<g>
	<g>
		<path d="M649.76,325.189c4.061-11.493,3.625-23.5,4.094-35.237c0.466-11.745,2.285-24.577,9.558-34.266
			c-15.145,11.013-31.147,23.058-39.718,40.918c-9.864,20.559-7.46,43.544-4.735,64.527
			C631.682,352.355,644.297,340.652,649.76,325.189"/>
		<path d="M577.653,386.542c13.29-6.761,22.799-22.641,26.221-38.355c3.426-15.714,1.654-31.328-1.407-45.894
			c-1.313-6.233-2.859-12.431-2.998-19.046c-0.143-6.611,1.298-13.857,5.269-19.538c-15.208,16.195-29.789,35.219-34.716,57.113
			C564.813,343.969,571.263,366.002,577.653,386.542"/>
		<path d="M539.44,412.611c9.17-1.328,17.384-11.1,20.495-21.413c3.114-10.312,2.037-20.904-0.289-30.45
			c-2.334-9.542-5.861-18.499-7.655-28.277c-1.793-9.79-1.681-20.877,2.92-30.693c-14.601,14.6-24.776,35.072-27.646,55.604
			C524.405,377.912,528.882,398.248,539.44,412.611"/>
		<path d="M435.15,431.305c4.66-5.246,5.613-12.885,6.833-19.797c3.354-18.962,11.151-37.712,22.33-53.693
			c-15.992,8.866-33.092,18.817-42.854,36.081c-8.631,15.262-9.745,33.176-10.563,50.024
			C418.142,437.473,428.592,438.695,435.15,431.305"/>
		<path d="M376.214,427.561c3.051-1.164,5.876-3.287,8.649-5.375c6.161-4.645,12.693-9.748,15.954-17.199
			c6.397-14.618-2.634-31.236,4.709-45.397c-11.174,6.135-21.133,16.202-27.942,28.251c-6.807,12.042-10.42,26.001-10.143,39.142
			C369.771,428.82,373.156,428.73,376.214,427.561"/>
		<path d="M457.772,459.049c-0.139,13.146-0.078,27.076,6.087,37.041c4.082,6.598,10.431,10.732,16.637,14.717
			c11.085,7.121,22.477,14.363,35.703,16.225c-8.188-10.852-9.193-27.195-14.825-40.217
			C493.633,468.932,476.493,458.02,457.772,459.049"/>
		<path d="M548.202,444.564c-13.399-6.041-30.442-3.76-44.555,5.951c18.754,28.877,56.896,38.07,90.121,21.74
			C575.541,470.613,564.521,451.92,548.202,444.564"/>
		<path d="M580.606,408.963c-11.332-0.922-24.198,4-32.769,14.529c9.737,14.941,25.834,23.826,43.384,23.924
			c6.734,0.037,13.609-1.148,20.337-1.096c6.731,0.061,13.522,1.494,18.232,6.162c-6.061-10.041-12.188-20.158-20.079-28.307
			C601.813,416.025,591.938,409.887,580.606,408.963"/>
		<path d="M627.355,368.677c3.715,8.935,7.546,17.868,13.095,25.245c5.82,7.732,13.794,13.699,23.275,14.546
			c11.039,0.99,23.617-4.834,33.98-2.807c-17.451-8.781-23.846-37.116-43.057-43.491c-6.079-2.015-12.994-1.49-19.628,1.009
			c7.121-5.189,14.153-10.57,21.064-16.194c13.835,8.848,33.895,5.275,49.875-5.688c17.493-12,30.836-31.211,41.868-50.884
			c-12.721-0.702-25.542-1.411-38.566,0.878c-13.016,2.285-26.408,7.793-37.222,18.041c-9.579,9.081-16.72,21.688-19.695,34.821
			c0.184,0.165,0.375,0.319,0.57,0.484c-16.229,11.058-32.404,22.244-48.862,32.716c-25.5,16.235-51.57,31.37-78.039,44.534
			c-4.022,1.996-8.108,4.059-12.236,6.115c3.61-4.938,6.315-10.664,7.58-16.629c2.788-13.111-0.871-25.518-3.805-37.499
			c-2.935-11.981-5.028-25.572,0.442-38.037c-13.522,13.939-23.433,32.524-27.579,51.724c-3.76,17.424-2.738,35.225,2.777,50.249
			c-11.381,5.021-22.911,9.238-34.337,11.4c10.041-2.98,18.397-15.176,21.174-27.002c3.084-13.148,1.212-26.101,0.424-38.951
			c-0.788-12.848-0.157-27.053,6.908-38.727c-15.411,11.632-27.673,29.5-33.534,48.854c-5.857,19.344-5.265,39.967,1.613,56.409
			c-2.521,0.391-5.039,0.676-7.545,0.834c-13.692,0.863-26.908-1.689-39.302-5.959c-12.93-4.457-25.774-9.523-38.07-15.445
			c-12.863-6.189-25.681-12.457-38.146-19.451c-6.476-3.646-12.934-7.316-19.289-11.189c-5.825-3.556-11.408-7.787-17.731-10.346
			c-4.767-1.936-9.975,5.816-6.03,9.649c5.709,5.547,12.911,9.223,19.639,13.17c6.407,3.768,12.867,7.438,19.452,10.867
			c13.696,7.129,27.684,13.523,41.977,19.385c13.245,5.432,27.058,11.143,41.402,14.783c-4.222,16.57-8.045,34.588-1.944,48.283
			c2.405,5.412,6.222,9.682,10.277,13.508c8.364,7.865,17.978,14.086,28.42,18.432c-6.383-4.188-9.365-14.025-9.636-23.391
			c-0.334-11.559,2.026-23.836-0.297-34.732c-1.763-8.291-6.446-15.121-12.683-19.316c6.653,0.932,13.411,1.27,20.277,0.805
			c25.988-1.758,52.055-15.453,76.771-28.211c22.716-11.736,45.161-24.307,67.206-38.127c14.896,26.293,44.13,39.959,74.028,34.309
			c-10.566-2.32-16.949-12.908-22.795-22.611c-5.839-9.711-13.024-19.836-23.974-20.655c-6.701-0.499-13.62,2.627-20.514,4.66
			c0.796-0.51,1.599-1.009,2.397-1.527C608.763,381.423,618.125,375.188,627.355,368.677"/>
	</g>
	<g>
		<path d="M112.328,353.552c-1.809-9.835-0.277-20.581,0.563-30.994c0.844-10.42,0.811-21.677-3.527-29.579
			c9.955,8.289,20.435,17.41,24.896,32.46c5.135,17.328,1.056,38.059-3.052,57.034C122.795,375.938,114.76,366.779,112.328,353.552"
			/>
		<path d="M158.826,400.957c-9.028-4.691-14.375-17.882-15.289-31.544c-0.919-13.658,1.951-27.751,5.66-41.045
			c1.587-5.685,3.343-11.366,4.113-17.275c0.769-5.906,0.448-12.217-1.878-16.881c9.478,12.9,18.213,28.382,19.605,47.398
			C172.505,361.713,165.569,382.005,158.826,400.957"/>
		<path d="M184.12,420.332c-6.566-0.262-11.583-8.135-12.816-17.02c-1.234-8.872,0.621-18.421,3.285-27.165
			c2.666-8.742,6.148-17.076,8.448-25.977c2.298-8.904,3.333-18.776,0.962-27.058c9.195,11.538,14.566,28.761,14.591,46.765
			C198.609,387.889,193.285,406.465,184.12,420.332"/>
		<path d="M258.444,426.471c-2.876-4.209-2.801-10.918-2.996-16.959c-0.537-16.557-4.345-32.486-10.898-45.6
			c10.792,6.285,22.281,13.433,27.675,27.834c4.767,12.73,3.773,28.58,2.67,43.513C270.249,430.246,262.491,432.393,258.444,426.471
			"/>
		<path d="M301.89,417.182c-2.11-0.729-3.962-2.334-5.778-3.918c-4.034-3.512-8.292-7.406-9.923-13.719
			c-3.199-12.38,5.079-28.102,1.139-39.982c7.55,4.338,13.809,12.308,17.57,22.36c3.756,10.044,4.991,22.125,3.461,33.854
			C306.469,417.662,304.008,417.916,301.89,417.182"/>
		<path d="M239.113,453.48c-1.227,11.707-2.677,24.119-8.186,33.627c-3.649,6.289-8.705,10.619-13.643,14.799
			c-8.819,7.459-17.872,15.063-27.727,18.057c7.077-10.5,9.463-25.164,14.893-37.336
			C211.911,465.908,225.535,454.447,239.113,453.48"/>
		<path d="M174.494,449.689c10.401-6.73,22.624-6.416,31.956,0.811c-16.617,27.633-45.417,39.67-68.047,28.473
			C151.888,475.67,161.826,457.9,174.494,449.689"/>
		<path d="M154.408,421.232c8.374-1.957,17.279,1.127,22.478,9.645c-8.623,14.303-21.283,23.842-34.117,25.703
			c-4.925,0.713-9.827,0.344-14.752,1.072c-4.923,0.736-10.034,2.693-13.945,7.332c5.444-9.561,10.943-19.197,17.53-27.256
			C138.194,429.668,146.035,423.199,154.408,421.232"/>
		<path d="M124.311,390.046c-3.615,8.336-7.317,16.688-12.118,23.825c-5.034,7.475-11.461,13.598-18.476,15.309
			c-8.165,1.996-16.771-1.92-24.547,0.932c13.638-9.592,21.17-35.491,35.851-43.108c4.645-2.409,9.649-2.642,14.242-1.084
			c-4.679-3.906-9.276-7.989-13.756-12.304c-11.005,9.282-25.303,8.119-35.875-0.038c-11.572-8.926-19.384-24.705-25.461-41.128
			c9.367-1.91,18.808-3.835,28.095-3.107c9.281,0.72,18.512,4.277,25.378,12.322c6.084,7.125,10.03,17.643,10.877,29.046
			c-0.15,0.169-0.304,0.326-0.463,0.487c10.744,8.222,21.435,16.555,32.404,24.227c16.996,11.903,34.519,22.754,52.533,31.811
			c2.735,1.381,5.518,2.807,8.322,4.227c-2.139-4.039-3.537-8.871-3.861-14.064c-0.713-11.398,3.212-22.823,6.564-33.798
			c3.354-10.972,6.257-23.301,3.518-33.856c8.473,11.058,13.842,26.622,14.932,43.316c0.991,15.145-1.555,31.116-7.099,45.059
			c7.808,3.332,15.812,5.928,23.941,6.701c-7.035-1.645-11.913-11.662-12.75-21.936c-0.923-11.408,1.75-23.137,3.621-34.666
			c1.874-11.53,2.848-24.127-1.139-33.819c10.088,8.811,17.245,23.501,19.575,40.156c2.328,16.651-0.188,35.098-6.874,50.444
			c1.807,0.09,3.617,0.09,5.431-0.023c9.919-0.607,19.833-4.217,29.322-9.281c9.898-5.277,19.793-11.078,29.378-17.6
			c10.024-6.82,20.022-13.695,29.834-21.191c5.103-3.901,10.191-7.822,15.227-11.916c4.615-3.757,9.125-8.09,14-11.013
			c3.681-2.207,6.706,4.176,3.438,7.996c-4.732,5.516-10.368,9.516-15.681,13.716c-5.062,4.007-10.15,7.925-15.313,11.648
			c-10.728,7.736-21.596,14.85-32.631,21.514c-10.227,6.178-20.896,12.66-31.746,17.352c1.413,14.348,2.389,30.018-3.45,42.836
			c-2.308,5.064-5.525,9.26-8.876,13.072c-6.906,7.865-14.557,14.379-22.626,19.301c5.084-4.375,8.261-13.447,9.403-21.814
			c1.409-10.342,0.923-21.043,3.718-30.986c2.127-7.572,6.236-14.123,11.217-18.498c-4.955,1.5-9.928,2.482-14.898,2.762
			c-18.81,1.057-36.479-8.518-53.252-17.396c-15.418-8.164-30.551-17.102-45.265-27.195c-13.538,24.938-36.28,40.066-57.558,38.047
			c7.958-3.137,13.687-13.215,18.938-22.453c5.248-9.238,11.521-18.994,19.605-20.824c4.945-1.127,9.688,0.959,14.52,2.078
			c-0.531-0.375-1.066-0.736-1.599-1.119C136.611,399.531,130.399,394.916,124.311,390.046"/>
	</g>
</g>
</svg>
